<?xml version="1.0" standalone="no"?>
<!DOCTYPE svg PUBLIC "-//W3C//DTD SVG 20010904//EN"
 "http://www.w3.org/TR/2001/REC-SVG-20010904/DTD/svg10.dtd">
<svg version="1.0" xmlns="http://www.w3.org/2000/svg"
 width="512.000000pt" height="512.000000pt" viewBox="0 0 512.000000 512.000000"
 preserveAspectRatio="xMidYMid meet">
<metadata>
Created by potrace 1.11, written by Peter Selinger 2001-2013
</metadata>
<g transform="translate(0.000000,512.000000) scale(0.100000,-0.100000)"
fill="#000000" stroke="none">
<path d="M803 4733 c-13 -2 -32 -16 -43 -30 -20 -25 -20 -38 -20 -914 0 -630
3 -895 11 -912 6 -14 22 -30 36 -36 32 -14 1051 -15 1192 -1 271 28 472 131
568 292 39 64 73 189 73 267 0 164 -91 314 -244 401 l-49 28 44 27 c65 42 139
123 168 185 23 49 26 68 26 165 0 128 -15 183 -76 275 -101 150 -289 229 -594
250 -128 9 -1049 11 -1092 3z m983 -374 c80 -14 131 -49 156 -106 41 -94 3
-199 -89 -244 -46 -23 -59 -24 -285 -27 l-238 -4 0 190 c0 104 3 192 7 195 11
11 384 8 449 -4z m35 -744 c58 -7 125 -51 156 -101 49 -83 23 -205 -58 -263
-59 -43 -115 -51 -364 -51 l-225 0 0 208 c0 115 2 211 4 213 6 6 433 1 487 -6z"/>
<path d="M3315 4729 c-16 -5 -36 -16 -42 -26 -10 -13 -13 -212 -13 -914 0
-494 3 -905 6 -914 15 -39 53 -45 296 -45 128 0 243 3 256 6 53 15 52 -8 52
948 0 650 -3 892 -12 910 -7 17 -24 30 -47 36 -44 12 -455 12 -496 -1z"/>
<path d="M3310 2345 c-298 -47 -522 -193 -602 -393 -32 -81 -33 -260 -1 -346
32 -85 91 -156 173 -211 136 -90 278 -138 595 -200 362 -70 445 -109 445 -211
0 -50 -26 -89 -79 -117 -64 -35 -134 -47 -266 -47 -175 0 -245 27 -352 137
l-51 53 -261 0 -261 0 -16 -25 c-19 -28 -13 -79 18 -162 76 -205 340 -359 691
-403 158 -20 466 -8 597 23 205 49 339 115 444 221 72 72 110 138 131 227 41
175 -5 341 -126 453 -113 105 -284 168 -625 231 -218 40 -351 76 -411 111
-105 61 -94 176 22 234 45 23 62 25 175 25 109 0 131 -3 175 -23 53 -24 115
-77 115 -98 0 -7 15 -22 34 -33 31 -20 47 -21 288 -21 234 0 256 1 271 18 27
30 21 90 -16 167 -96 200 -345 351 -652 395 -97 13 -353 11 -455 -5z"/>
<path d="M643 2330 c-49 -20 -55 -45 -51 -229 3 -147 5 -173 21 -188 16 -16
47 -18 315 -23 l297 -5 5 -713 c5 -781 1 -725 65 -737 17 -4 132 -5 256 -3
206 3 229 5 248 22 21 19 21 23 23 725 l3 706 295 5 c162 3 296 7 297 8 1 1 9
9 17 18 13 13 16 45 16 198 0 173 -1 184 -21 202 -20 18 -51 19 -893 21 -492
1 -881 -2 -893 -7z"/>
</g>
</svg>
